# xmcd
#
# Track frame offsets: 
#        151
#        18606
#        37025
#        59252
#        73669
#        92164
#        109015
#        127242
#        148235
#        169128
#        187503
#        206428
#        224845
#        247048
#
# Disc length: 3553 seconds
#
# Revision: 0
# Processed by: cddbd v1.5.2PL0 Copyright (c) Steve Scherf et al.
# Submitted via: ExactAudioCopy v0.99pb4
#
DISCID=db0ddf0e
DTITLE=Ricky Martin (»∆Ê¬ÌÕ°) - [Australia Bonus Tracks]
DYEAR=1999
DGENRE=Latin¿≠∂°+ „«È
TTITLE0=Livin' La Vida Loca
TTITLE1=Spanish Eyes
TTITLE2=She's All I Ever Had
TTITLE3=Shake Your Bon-Bon
TTITLE4=Be Careful [Cuidado con Mi Coraz®Æn] Performed by Ricky Martin
TTITLE4=and Madonna
TTITLE5=Love You For A Day
TTITLE6=Private Emotion  Performed by Ricky Martin and Meja
TTITLE7=I'm On My Way
TTITLE8=I Am Made Of You
TTITLE9=La Diosa Del Carnaval [Spanish Eyes]
TTITLE10=You Stay With Me
TTITLE11=Livin' La Vida Loca (Spanish Version)
TTITLE12=Bella [She's All I Ever Had]
TTITLE13=I Count The Minutes
EXTD=
EXTT0=
EXTT1=
EXTT2=
EXTT3=
EXTT4=
EXTT5=
EXTT6=
EXTT7=
EXTT8=
EXTT9=
EXTT10=
EXTT11=
EXTT12=
EXTT13=
PLAYORDER=
